<mxfile host="app.diagrams.net" modified="2024-02-26T12:52:43.516Z" agent="Mozilla/5.0 (Macintosh; Intel Mac OS X 10_15_7) AppleWebKit/537.36 (KHTML, like Gecko) Chrome/122.0.0.0 Safari/537.36" etag="WinrE1_YxmuF1YV5V8UK" version="23.1.6" type="github">
  <diagram name="第 1 页" id="cZVJ20v0fG7kAWIIu1cO">
    <mxGraphModel dx="1124" dy="637" grid="0" gridSize="10" guides="1" tooltips="1" connect="1" arrows="1" fold="1" page="1" pageScale="1" pageWidth="827" pageHeight="1169" math="0" shadow="0">
      <root>
        <mxCell id="0" />
        <mxCell id="1" parent="0" />
        <mxCell id="ghE5hVSuCTaZ7PyKsQKC-3" value="" style="edgeStyle=orthogonalEdgeStyle;rounded=0;sketch=1;hachureGap=4;jiggle=2;curveFitting=1;orthogonalLoop=1;jettySize=auto;html=1;" edge="1" parent="1" source="ghE5hVSuCTaZ7PyKsQKC-1" target="ghE5hVSuCTaZ7PyKsQKC-2">
          <mxGeometry relative="1" as="geometry" />
        </mxCell>
        <mxCell id="ghE5hVSuCTaZ7PyKsQKC-1" value="{storage}-springboot-starer" style="rounded=1;whiteSpace=wrap;html=1;sketch=1;hachureGap=4;jiggle=2;curveFitting=1;" vertex="1" parent="1">
          <mxGeometry x="178" y="280" width="170" height="60" as="geometry" />
        </mxCell>
        <mxCell id="ghE5hVSuCTaZ7PyKsQKC-6" value="" style="edgeStyle=orthogonalEdgeStyle;rounded=0;sketch=1;hachureGap=4;jiggle=2;curveFitting=1;orthogonalLoop=1;jettySize=auto;html=1;" edge="1" parent="1" source="ghE5hVSuCTaZ7PyKsQKC-2" target="ghE5hVSuCTaZ7PyKsQKC-5">
          <mxGeometry relative="1" as="geometry" />
        </mxCell>
        <mxCell id="ghE5hVSuCTaZ7PyKsQKC-2" value="多云架构中获取配置" style="rounded=1;whiteSpace=wrap;html=1;sketch=1;hachureGap=4;jiggle=2;curveFitting=1;" vertex="1" parent="1">
          <mxGeometry x="178" y="430" width="170" height="60" as="geometry" />
        </mxCell>
        <mxCell id="ghE5hVSuCTaZ7PyKsQKC-4" value="初始化Proxy类" style="text;html=1;align=center;verticalAlign=middle;resizable=0;points=[];autosize=1;strokeColor=none;fillColor=none;" vertex="1" parent="1">
          <mxGeometry x="293" y="520" width="100" height="30" as="geometry" />
        </mxCell>
        <mxCell id="ghE5hVSuCTaZ7PyKsQKC-5" value="业务方使用" style="rounded=1;whiteSpace=wrap;html=1;sketch=1;hachureGap=4;jiggle=2;curveFitting=1;" vertex="1" parent="1">
          <mxGeometry x="178" y="570" width="170" height="60" as="geometry" />
        </mxCell>
        <mxCell id="ghE5hVSuCTaZ7PyKsQKC-7" value="装载factory类" style="text;html=1;align=center;verticalAlign=middle;resizable=0;points=[];autosize=1;strokeColor=none;fillColor=none;" vertex="1" parent="1">
          <mxGeometry x="288" y="370" width="100" height="30" as="geometry" />
        </mxCell>
        <mxCell id="ghE5hVSuCTaZ7PyKsQKC-10" style="edgeStyle=orthogonalEdgeStyle;rounded=0;sketch=1;hachureGap=4;jiggle=2;curveFitting=1;orthogonalLoop=1;jettySize=auto;html=1;entryX=1;entryY=0.5;entryDx=0;entryDy=0;" edge="1" parent="1" source="ghE5hVSuCTaZ7PyKsQKC-8" target="ghE5hVSuCTaZ7PyKsQKC-2">
          <mxGeometry relative="1" as="geometry" />
        </mxCell>
        <mxCell id="ghE5hVSuCTaZ7PyKsQKC-8" value="Diamond" style="text;html=1;align=center;verticalAlign=middle;resizable=0;points=[];autosize=1;strokeColor=none;fillColor=none;" vertex="1" parent="1">
          <mxGeometry x="428" y="420" width="70" height="30" as="geometry" />
        </mxCell>
        <mxCell id="ghE5hVSuCTaZ7PyKsQKC-12" style="edgeStyle=orthogonalEdgeStyle;rounded=0;sketch=1;hachureGap=4;jiggle=2;curveFitting=1;orthogonalLoop=1;jettySize=auto;html=1;entryX=1;entryY=0.5;entryDx=0;entryDy=0;" edge="1" parent="1" source="ghE5hVSuCTaZ7PyKsQKC-9" target="ghE5hVSuCTaZ7PyKsQKC-2">
          <mxGeometry relative="1" as="geometry" />
        </mxCell>
        <mxCell id="ghE5hVSuCTaZ7PyKsQKC-9" value="Application" style="text;html=1;align=center;verticalAlign=middle;resizable=0;points=[];autosize=1;strokeColor=none;fillColor=none;" vertex="1" parent="1">
          <mxGeometry x="423" y="480" width="80" height="30" as="geometry" />
        </mxCell>
      </root>
    </mxGraphModel>
  </diagram>
</mxfile>
